<?xml version="1.0" encoding="utf-8"?>
<!-- Generator: Adobe Illustrator 18.0.0, SVG Export Plug-In . SVG Version: 6.00 Build 0)  -->
<!DOCTYPE svg PUBLIC "-//W3C//DTD SVG 1.1//EN" "http://www.w3.org/Graphics/SVG/1.1/DTD/svg11.dtd">
<svg version="1.1" id="Layer_1" xmlns="http://www.w3.org/2000/svg" xmlns:xlink="http://www.w3.org/1999/xlink" x="0px" y="0px"
	 viewBox="0 0 100 100" enable-background="new 0 0 100 100" xml:space="preserve">
<path fill="#FFFFFF" d="M86.7,53.3H80c-1.8,0-3.3-1.5-3.3-3.3s1.5-3.3,3.3-3.3h6.7c1.8,0,3.3,1.5,3.3,3.3S88.5,53.3,86.7,53.3z
	 M73.5,31.2c-1.3,1.3-3.3,1.3-4.7,0c-1.3-1.3-1.3-3.3,0-4.7l4.7-4.7c1.3-1.3,3.3-1.3,4.7,0c1.3,1.3,1.3,3.3,0,4.7L73.5,31.2z M50,70
	c-11,0-20-9-20-20s9-20,20-20s20,9,20,20S61,70,50,70z M50,36.7c-7.3,0-13.3,6-13.3,13.3s6,13.3,13.3,13.3s13.3-6,13.3-13.3
	S57.3,36.7,50,36.7z M50,23.3c-1.8,0-3.3-1.5-3.3-3.3v-6.7c0-1.8,1.5-3.3,3.3-3.3s3.3,1.5,3.3,3.3V20C53.3,21.8,51.8,23.3,50,23.3z
	 M26.5,31.2l-4.8-4.7c-1.3-1.3-1.3-3.3,0-4.7s3.3-1.3,4.7,0l4.7,4.7c1.3,1.3,1.3,3.3,0,4.7C29.7,32.5,27.7,32.5,26.5,31.2z M23.3,50
	c0,1.8-1.5,3.3-3.3,3.3h-6.7c-1.8,0-3.3-1.5-3.3-3.3s1.5-3.3,3.3-3.3H20C21.8,46.7,23.3,48.2,23.3,50z M26.5,68.8
	c1.3-1.3,3.3-1.3,4.7,0c1.3,1.3,1.3,3.3,0,4.7l-4.7,4.8c-1.3,1.3-3.3,1.3-4.7,0c-1.3-1.3-1.3-3.3,0-4.7L26.5,68.8z M50,76.7
	c1.8,0,3.3,1.5,3.3,3.3v6.7c0,1.8-1.5,3.3-3.3,3.3s-3.3-1.5-3.3-3.3V80C46.7,78.2,48.2,76.7,50,76.7z M73.5,68.8l4.7,4.7
	c1.3,1.3,1.3,3.3,0,4.7c-1.3,1.3-3.3,1.3-4.7,0l-4.7-4.7c-1.3-1.3-1.3-3.3,0-4.7C70.2,67.5,72.3,67.5,73.5,68.8z"/>
</svg>
