<?xml version="1.0" encoding="utf-8"?>
<!-- Generator: Adobe Illustrator 18.0.0, SVG Export Plug-In . SVG Version: 6.00 Build 0)  -->
<!DOCTYPE svg PUBLIC "-//W3C//DTD SVG 1.1//EN" "http://www.w3.org/Graphics/SVG/1.1/DTD/svg11.dtd">
<svg version="1.1" id="Layer_1" xmlns="http://www.w3.org/2000/svg" xmlns:xlink="http://www.w3.org/1999/xlink" x="0px" y="0px"
	 viewBox="0 0 100 100" enable-background="new 0 0 100 100" xml:space="preserve">
<path fill="#FFFFFF" d="M50,90c-22,0-40-18-40-40s18-40,40-40c2.7,0,5,0.3,7.3,0.7c-0.3,2-0.7,4-0.7,6c0,14.7,12,26.6,26.6,26.6
	c2,0,4-0.3,6-0.7c0.3,2.3,0.7,5,0.7,7.3C90,72,72,90,50,90z M44,24c-11.7,2.7-20.6,13.3-20.6,26c0,14.7,12,26.6,26.6,26.6
	c12.7,0,23.3-9,26-20.6C59.7,53,47,40.3,44,24z"/>
</svg>
