<?xml version="1.0" encoding="utf-8"?>
<!-- Generator: Adobe Illustrator 18.0.0, SVG Export Plug-In . SVG Version: 6.00 Build 0)  -->
<!DOCTYPE svg PUBLIC "-//W3C//DTD SVG 1.1//EN" "http://www.w3.org/Graphics/SVG/1.1/DTD/svg11.dtd">
<svg version="1.1" id="Layer_1" xmlns="http://www.w3.org/2000/svg" xmlns:xlink="http://www.w3.org/1999/xlink" x="0px" y="0px"
	 viewBox="0 0 100 100" enable-background="new 0 0 100 100" xml:space="preserve">
<path fill="#FFFFFF" d="M87.2,53h-5.9c-1.6,0-3-1.3-3-3c0-1.6,1.3-3,3-3h5.9c1.6,0,3,1.3,3,3C90.1,51.6,88.8,53,87.2,53z M75.5,33.2
	c-1.2,1.2-3,1.2-4.2,0c-1.2-1.2-1.2-3,0-4.2l4.2-4.2c1.2-1.2,3-1.2,4.2,0c1.2,1.2,1.2,3,0,4.2L75.5,33.2z M71.1,56.4L71.1,56.4
	c2.6,3.1,4.2,7.1,4.2,11.5c0,9.9-8,17.8-17.8,17.8c-4.1,0-19,0-23.8,0C20.5,85.7,9.9,75,9.9,61.9s10.7-23.8,23.8-23.8
	c2.3,0,4.6,0.3,6.7,1c3.3-4.2,8.4-6.9,14.1-6.9c9.9,0,17.8,8,17.8,17.8C72.3,52.3,71.9,54.4,71.1,56.4z M15.8,61.9
	c0,9.9,8,17.8,17.8,17.8c5.4,0,19.3,0,23.8,0c6.6,0,11.9-5.3,11.9-11.9c0-6.6-5.3-11.9-11.9-11.9c-2.4,0-4.6,0.7-6.4,1.9
	c-1.8-7.9-8.9-13.8-17.3-13.8C23.8,44.1,15.8,52,15.8,61.9z M54.5,38.1c-3.3,0-6.3,1.3-8.4,3.5c3.5,2.1,6.4,5.1,8.4,8.7
	c1-0.2,2-0.3,3-0.3c3.2,0,6.1,0.8,8.7,2.3l0,0c0.1-0.7,0.2-1.5,0.2-2.3C66.4,43.4,61,38.1,54.5,38.1z M54.5,26.2c-1.6,0-3-1.3-3-3
	v-5.9c0-1.6,1.3-3,3-3c1.6,0,3,1.3,3,3v5.9C57.4,24.9,56.1,26.2,54.5,26.2z M33.4,33.2L29.2,29c-1.2-1.2-1.2-3,0-4.2
	c1.2-1.2,3-1.2,4.2,0l4.2,4.2c1.2,1.2,1.2,3,0,4.2C36.5,34.3,34.6,34.3,33.4,33.2z"/>
</svg>
