<?xml version="1.0" encoding="utf-8"?>
<!-- Generator: Adobe Illustrator 18.0.0, SVG Export Plug-In . SVG Version: 6.00 Build 0)  -->
<!DOCTYPE svg PUBLIC "-//W3C//DTD SVG 1.1//EN" "http://www.w3.org/Graphics/SVG/1.1/DTD/svg11.dtd">
<svg version="1.1" id="Layer_1" xmlns="http://www.w3.org/2000/svg" xmlns:xlink="http://www.w3.org/1999/xlink" x="0px" y="0px"
	 viewBox="0 0 100 100" enable-background="new 0 0 100 100" xml:space="preserve">
<path fill="#FFFFFF" d="M84,51.1L84,51.1c2.4,3.4,3.8,7.6,3.8,12.1c0,11.7-9.5,21.1-21.1,21.1c-4.9,0-22.6,0-28.2,0
	c-15.6,0-28.2-12.6-28.2-28.2S23,28,38.5,28c3.5,0,6.9,0.7,10,1.8l0,0c2.9-8.3,10.7-14.2,19.9-14.2c1.3,0,2.6,0.1,3.9,0.4
	c-0.2,1-0.4,2.1-0.4,3.2c0,7.8,6.3,14.1,14.1,14.1c1.1,0,2.1-0.1,3.2-0.4c0.2,1.3,0.4,2.6,0.4,3.9C89.6,42.3,87.5,47.3,84,51.1z
	 M17.4,56.2c0,11.7,9.5,21.1,21.1,21.1c6.4,0,22.9,0,28.2,0c7.8,0,14.1-6.3,14.1-14.1c0-7.8-6.3-14.1-14.1-14.1
	c-2.8,0-5.4,0.8-7.6,2.3C56.9,42,48.6,35,38.5,35C26.9,35,17.4,44.5,17.4,56.2z M51.9,31.3C51.9,31.3,51.9,31.3,51.9,31.3
	C51.9,31.3,51.9,31.3,51.9,31.3z M65.3,23.1c-5.1,1.2-9.1,5.1-10.4,10.2l0,0c3.4,2.4,6.2,5.6,8.2,9.2c1.2-0.2,2.4-0.4,3.6-0.4
	c4.6,0,8.9,1.5,12.3,4l0,0c1.5-1.7,2.6-3.8,3.1-6.1C73.7,38.3,66.9,31.6,65.3,23.1z"/>
</svg>
