<?xml version="1.0" encoding="utf-8"?>
<!-- Generator: Adobe Illustrator 18.0.0, SVG Export Plug-In . SVG Version: 6.00 Build 0)  -->
<!DOCTYPE svg PUBLIC "-//W3C//DTD SVG 1.1//EN" "http://www.w3.org/Graphics/SVG/1.1/DTD/svg11.dtd">
<svg version="1.1" id="Layer_1" xmlns="http://www.w3.org/2000/svg" xmlns:xlink="http://www.w3.org/1999/xlink" x="0px" y="0px"
	 viewBox="0 0 100 100" enable-background="new 0 0 100 100" xml:space="preserve">
<path fill="#FFFFFF" d="M39.2,78.9c-16,0-28.9-12.9-28.9-28.9s12.9-28.9,28.9-28.9c10.8,0,20.3,6,25.2,14.8c1.2-0.2,2.4-0.4,3.7-0.4
	c12,0,21.7,9.7,21.7,21.7c0,12-9.7,21.7-21.7,21.7C63,78.9,44.9,78.9,39.2,78.9z M68.1,71.7c8,0,14.5-6.5,14.5-14.4
	c0-8-6.5-14.5-14.5-14.5c-2.9,0-5.6,0.9-7.8,2.3C58,35.5,49.4,28.3,39.2,28.3c-12,0-21.7,9.7-21.7,21.7c0,12,9.7,21.7,21.7,21.7
	C45.7,71.7,62.6,71.7,68.1,71.7z"/>
</svg>
