<?xml version="1.0" encoding="utf-8"?>
<!-- Generator: Adobe Illustrator 18.0.0, SVG Export Plug-In . SVG Version: 6.00 Build 0)  -->
<!DOCTYPE svg PUBLIC "-//W3C//DTD SVG 1.1//EN" "http://www.w3.org/Graphics/SVG/1.1/DTD/svg11.dtd">
<svg version="1.1" id="Layer_1" xmlns="http://www.w3.org/2000/svg" xmlns:xlink="http://www.w3.org/1999/xlink" x="0px" y="0px"
	 viewBox="0 0 100 100" enable-background="new 0 0 100 100" xml:space="preserve">
<path fill="#FFFFFF" d="M12.1,62.7c-0.5-1.2-0.9-2.4-1.2-3.6H90c0,1.2-0.1,2.5-0.3,3.6H12.1z M25,26.3c4.2-2.3,9-3.6,14.1-3.6
	c5.1,0,9.9,1.3,14.1,3.6H25z M10.2,48.2c0.2-1.2,0.4-2.5,0.7-3.6h73.5c1,1.1,1.9,2.3,2.6,3.6H10.2z M12.1,40.9
	c0.5-1.3,1.1-2.5,1.8-3.6h50.4c0.1,0.1,0.2,0.2,0.2,0.4c1.2-0.2,2.4-0.4,3.7-0.4c4.5,0,8.6,1.3,12.1,3.6H12.1z M16.4,33.6
	c1.1-1.3,2.2-2.5,3.5-3.6h38.4c1.3,1.1,2.4,2.3,3.5,3.6H16.4z M89.7,55.5H10.2c-0.1-1.2-0.3-2.4-0.3-3.6h78.8
	C89.2,53,89.5,54.2,89.7,55.5z M88.8,66.4c-0.4,1.3-1,2.5-1.7,3.6H16.4c-0.9-1.1-1.7-2.4-2.5-3.6H88.8z M19.9,73.7h64.6
	c-1.2,1.4-2.6,2.6-4.2,3.6H25C23.1,76.3,21.4,75,19.9,73.7z"/>
</svg>
