<?xml version="1.0" encoding="utf-8"?>
<!-- Generator: Adobe Illustrator 18.0.0, SVG Export Plug-In . SVG Version: 6.00 Build 0)  -->
<!DOCTYPE svg PUBLIC "-//W3C//DTD SVG 1.1//EN" "http://www.w3.org/Graphics/SVG/1.1/DTD/svg11.dtd">
<svg version="1.1" id="Layer_1" xmlns="http://www.w3.org/2000/svg" xmlns:xlink="http://www.w3.org/1999/xlink" x="0px" y="0px"
	 viewBox="0 0 100 100" enable-background="new 0 0 100 100" xml:space="preserve">
<g>
	<g>
		<path fill="#FFFFFF" d="M68.3,25.8c-1.3,0-2.5,0.2-3.7,0.4c-5-9-14.6-15-25.6-15c-16.2,0-29.3,13.1-29.3,29.3
			c0,11,6.1,20.5,15,25.6c0.5-2.3,1.6-4.5,3.4-6.3l0.1-0.1C21.5,55.8,17,48.6,17,40.4c0-12.1,9.8-22,22-22c10.4,0,19.1,7.3,21.4,17
			c2.3-1.5,5-2.4,7.9-2.4c8.1,0,14.7,6.6,14.7,14.7c0,6.3-4,11.7-9.6,13.7c1.4,2.1,2.2,4.5,2.2,7c8.6-3,14.7-11.1,14.7-20.7
			C90.3,35.6,80.5,25.8,68.3,25.8z M37.2,61l-3.9,3.9c-2.1,2.1-2.1,5.6,0,7.8c2.1,2.1,5.6,2.1,7.8,0c2.1-2.1,2.1-5.6,0-7.8L37.2,61z
			 M50,75.6l-3.9,3.9c-2.1,2.1-2.1,5.6,0,7.8c2.1,2.1,5.6,2.1,7.8,0c2.1-2.1,2.1-5.6,0-7.8L50,75.6z M62.8,61l-3.9,3.9
			c-2.1,2.1-2.1,5.6,0,7.8c2.1,2.1,5.6,2.1,7.8,0c2.1-2.1,2.1-5.6,0-7.8L62.8,61z"/>
	</g>
</g>
</svg>
