<?xml version="1.0" encoding="utf-8"?>
<!-- Generator: Adobe Illustrator 18.0.0, SVG Export Plug-In . SVG Version: 6.00 Build 0)  -->
<!DOCTYPE svg PUBLIC "-//W3C//DTD SVG 1.1//EN" "http://www.w3.org/Graphics/SVG/1.1/DTD/svg11.dtd">
<svg version="1.1" id="Layer_1" xmlns="http://www.w3.org/2000/svg" xmlns:xlink="http://www.w3.org/1999/xlink" x="0px" y="0px"
	 viewBox="0 0 100 100" enable-background="new 0 0 100 100" xml:space="preserve">
<path fill="#FFFFFF" d="M84.2,45.6h-5.5c-1.5,0-2.7-1.2-2.7-2.7c0-1.5,1.2-2.7,2.7-2.7h5.5c1.5,0,2.7,1.2,2.7,2.7
	C87,44.4,85.7,45.6,84.2,45.6z M73.5,27.4c-1.1,1.1-2.8,1.1-3.9,0c-1.1-1.1-1.1-2.8,0-3.9l3.9-3.9c1.1-1.1,2.8-1.1,3.9,0
	c1.1,1.1,1.1,2.8,0,3.9L73.5,27.4z M69.4,48.7L69.4,48.7c2.4,2.9,3.8,6.5,3.8,10.5l0,0c0,7.2-4.6,13.2-11,15.5
	c0-1.8-0.6-3.6-1.7-5.2c4.2-1.5,7.2-5.6,7.2-10.3c0-6-4.9-11-10.9-11c-2.2,0-4.2,0.7-5.9,1.8c-1.7-7.3-8.2-12.7-16-12.7
	c-9.1,0-16.4,7.4-16.4,16.4c0,1.9,0.3,3.8,1,5.5h0c1.3,3.8,4,6.9,7.4,8.8l-0.1,0.1c-1.3,1.3-2.2,3-2.6,4.7c-5.1-2.9-9-7.8-10.5-13.6
	l0,0c-0.5-1.8-0.7-3.6-0.7-5.5c0-12.1,9.8-21.9,21.9-21.9c2.2,0,4.2,0.3,6.2,0.9c3-3.9,7.7-6.4,13-6.4c9.1,0,16.4,7.4,16.4,16.4
	C70.5,44.9,70.1,46.9,69.4,48.7z M54.1,31.9c-3,0-5.8,1.2-7.8,3.2c3.2,2,5.9,4.7,7.7,8c0.9-0.2,1.8-0.3,2.8-0.3c2.9,0,5.6,0.8,8,2.1
	l0,0c0.1-0.7,0.2-1.4,0.2-2.1C65.1,36.8,60.2,31.9,54.1,31.9z M54.1,20.9c-1.5,0-2.7-1.2-2.7-2.7v-5.5c0-1.5,1.2-2.7,2.7-2.7
	c1.5,0,2.7,1.2,2.7,2.7v5.5C56.8,19.7,55.6,20.9,54.1,20.9z M34.8,27.4l-3.9-3.9c-1.1-1.1-1.1-2.8,0-3.9c1.1-1.1,2.8-1.1,3.9,0
	l3.9,3.9c1.1,1.1,1.1,2.8,0,3.9C37.6,28.4,35.8,28.4,34.8,27.4z M33.6,69.1l2.9,2.9c1.6,1.6,1.6,4.2,0,5.8c-1.6,1.6-4.2,1.6-5.8,0
	c-1.6-1.6-1.6-4.2,0-5.8L33.6,69.1z M43.2,80.1l2.9,2.9c1.6,1.6,1.6,4.2,0,5.8c-1.6,1.6-4.2,1.6-5.8,0c-1.6-1.6-1.6-4.2,0-5.8
	L43.2,80.1z M52.7,69.1l2.9,2.9c1.6,1.6,1.6,4.2,0,5.8c-1.6,1.6-4.2,1.6-5.8,0c-1.6-1.6-1.6-4.2,0-5.8L52.7,69.1z"/>
</svg>
