<?xml version="1.0" encoding="utf-8"?>
<!-- Generator: Adobe Illustrator 18.0.0, SVG Export Plug-In . SVG Version: 6.00 Build 0)  -->
<!DOCTYPE svg PUBLIC "-//W3C//DTD SVG 1.1//EN" "http://www.w3.org/Graphics/SVG/1.1/DTD/svg11.dtd">
<svg version="1.1" id="Layer_1" xmlns="http://www.w3.org/2000/svg" xmlns:xlink="http://www.w3.org/1999/xlink" x="0px" y="0px"
	 viewBox="0 0 100 100" enable-background="new 0 0 100 100" xml:space="preserve">
<path fill="#FFFFFF" d="M81.1,42.6c2.2,3.1,3.5,7,3.5,11.1l0,0c0,8.4-5.4,15.6-12.9,18.2c0-2.2-0.7-4.3-2-6.1
	c4.9-1.8,8.4-6.5,8.4-12.1l0,0l0,0c0-7.1-5.8-12.9-12.9-12.9c-2.6,0-5,0.8-7,2.1c-2-8.6-9.6-15-18.8-15c-10.7,0-19.3,8.7-19.3,19.3
	c0,2.3,0.4,4.4,1.1,6.4h0C22.9,58.1,26,61.8,30,64l-0.1,0.1c-1.6,1.6-2.6,3.5-3,5.6c-6-3.4-10.6-9.2-12.3-16l0,0
	c-0.5-2.1-0.8-4.2-0.8-6.4c0-14.2,11.5-25.8,25.8-25.8c3.2,0,6.3,0.6,9.1,1.7c2.6-7.5,9.8-13,18.2-13c1.2,0,2.4,0.1,3.6,0.3
	c-0.2,0.9-0.3,1.9-0.3,2.9c0,7.1,5.8,12.9,12.9,12.9c1,0,2-0.1,2.9-0.3c0.2,1.2,0.3,2.3,0.3,3.6C86.2,34.5,84.3,39.1,81.1,42.6z
	 M64,16.9c-4.7,1.1-8.3,4.7-9.5,9.3l0,0c3.1,2.2,5.7,5.1,7.5,8.4c1.1-0.2,2.2-0.3,3.3-0.3c4.2,0,8.1,1.4,11.3,3.7
	c1.4-1.6,2.4-3.5,2.9-5.6C71.6,30.9,65.5,24.8,64,16.9z M37.9,65.3l3.4,3.4c1.9,1.9,1.9,4.9,0,6.8c-1.9,1.9-4.9,1.9-6.8,0
	c-1.9-1.9-1.9-4.9,0-6.8L37.9,65.3z M49.2,78.2l3.4,3.4c1.9,1.9,1.9,4.9,0,6.8c-1.9,1.9-4.9,1.9-6.8,0c-1.9-1.9-1.9-4.9,0-6.8
	L49.2,78.2z M60.5,65.3l3.4,3.4c1.9,1.9,1.9,4.9,0,6.8c-1.9,1.9-4.9,1.9-6.8,0c-1.9-1.9-1.9-4.9,0-6.8L60.5,65.3z"/>
</svg>
