<?xml version="1.0" encoding="utf-8"?>
<!-- Generator: Adobe Illustrator 18.0.0, SVG Export Plug-In . SVG Version: 6.00 Build 0)  -->
<!DOCTYPE svg PUBLIC "-//W3C//DTD SVG 1.1//EN" "http://www.w3.org/Graphics/SVG/1.1/DTD/svg11.dtd">
<svg version="1.1" id="Layer_1" xmlns="http://www.w3.org/2000/svg" xmlns:xlink="http://www.w3.org/1999/xlink" x="0px" y="0px"
	 viewBox="0 0 100 100" enable-background="new 0 0 100 100" xml:space="preserve">
<path fill="#FFFFFF" d="M68.1,68.1c-0.5,0-1.2,0-1.9,0l6.5-8c5.7-1.9,9.9-7.3,9.9-13.7c0-8-6.5-14.4-14.5-14.4
	c-2.9,0-5.6,0.9-7.8,2.3C58,24.7,49.4,17.5,39.2,17.5c-12,0-21.7,9.7-21.7,21.7C17.5,49,24,57.3,33,59.9l-2.4,6.8
	c-11.8-3.7-20.3-14.6-20.3-27.6c0-16,12.9-28.9,28.9-28.9c10.8,0,20.3,6,25.2,14.8c1.2-0.2,2.4-0.4,3.7-0.4c12,0,21.7,9.7,21.7,21.7
	S80,68.1,68.1,68.1z M46.4,42.8h18.1L53.6,60.8h12.6L42.8,89.7l6.5-21.7H37.4L46.4,42.8z"/>
</svg>
