<?xml version="1.0" encoding="utf-8"?>
<!-- Generator: Adobe Illustrator 18.0.0, SVG Export Plug-In . SVG Version: 6.00 Build 0)  -->
<!DOCTYPE svg PUBLIC "-//W3C//DTD SVG 1.1//EN" "http://www.w3.org/Graphics/SVG/1.1/DTD/svg11.dtd">
<svg version="1.1" id="Layer_1" xmlns="http://www.w3.org/2000/svg" xmlns:xlink="http://www.w3.org/1999/xlink" x="0px" y="0px"
	 viewBox="0 0 100 100" enable-background="new 0 0 100 100" xml:space="preserve">
<path fill="#FFFFFF" d="M71.9,73.4v-7.4c6.3-1.6,10.9-7.3,10.9-14.1c0-8-6.5-14.6-14.6-14.6c-2.9,0-5.6,0.9-7.9,2.4
	c-2.2-9.7-10.9-16.9-21.2-16.9c-12.1,0-21.9,9.8-21.9,21.9c0,8.1,4.4,15.1,10.9,18.9v8.1c-10.7-4.3-18.2-14.8-18.2-27
	c0-16.1,13-29.1,29.1-29.1c10.9,0,20.5,6,25.4,14.9c1.2-0.2,2.4-0.4,3.7-0.4c12.1,0,21.9,9.8,21.9,21.9
	C90.1,62.7,82.2,71.6,71.9,73.4z M37.4,62.8c1-1.7,3.2-2.3,5-1.3l4,2.3v-4.6c0-2,1.6-3.6,3.6-3.6s3.6,1.6,3.6,3.6v4.6l4-2.3
	c1.7-1,4-0.4,5,1.3c1,1.7,0.4,4-1.3,5l-4,2.3l4,2.3c1.7,1,2.3,3.2,1.3,5c-1,1.7-3.2,2.3-5,1.3l-4-2.3V81c0,2-1.6,3.6-3.6,3.6
	S46.4,83,46.4,81v-4.6l-4,2.3c-1.7,1-4,0.4-5-1.3c-1-1.7-0.4-4,1.3-5l4-2.3l-4-2.3C37,66.7,36.4,64.5,37.4,62.8z M50,73.7
	c2,0,3.6-1.6,3.6-3.6c0-2-1.6-3.6-3.6-3.6S46.4,68,46.4,70C46.4,72,48,73.7,50,73.7z"/>
</svg>
