<?xml version="1.0" encoding="utf-8"?>
<!-- Generator: Adobe Illustrator 18.0.0, SVG Export Plug-In . SVG Version: 6.00 Build 0)  -->
<!DOCTYPE svg PUBLIC "-//W3C//DTD SVG 1.1//EN" "http://www.w3.org/Graphics/SVG/1.1/DTD/svg11.dtd">
<svg version="1.1" id="Layer_1" xmlns="http://www.w3.org/2000/svg" xmlns:xlink="http://www.w3.org/1999/xlink" x="0px" y="0px"
	 viewBox="0 0 100 100" enable-background="new 0 0 100 100" xml:space="preserve">
<path fill="#FFFFFF" d="M86.1,47.1h-5.8c-1.6,0-2.9-1.3-2.9-2.9c0-1.6,1.3-2.9,2.9-2.9h5.8c1.6,0,2.9,1.3,2.9,2.9
	C89,45.8,87.7,47.1,86.1,47.1z M74.7,27.9c-1.1,1.1-3,1.1-4.1,0c-1.1-1.1-1.1-3,0-4.1l4.1-4.1c1.1-1.1,3-1.1,4.1,0
	c1.1,1.1,1.1,3,0,4.1L74.7,27.9z M70.5,50.4L70.5,50.4c1.3,1.6,2.4,3.4,3,5.3h-6.3c-2-3.4-5.7-5.8-10-5.8c-2.3,0-4.4,0.7-6.3,1.9
	c-1.8-7.7-8.6-13.4-16.8-13.4c-9.6,0-17.3,7.8-17.3,17.3H11C11,43,21.4,32.7,34.1,32.7c2.3,0,4.5,0.3,6.5,0.9
	c3.2-4.1,8.1-6.7,13.7-6.7c9.6,0,17.3,7.8,17.3,17.3C71.6,46.4,71.2,48.5,70.5,50.4z M54.3,32.7c-3.2,0-6.1,1.3-8.2,3.4
	c3.4,2.1,6.2,5,8.1,8.4c1-0.2,1.9-0.3,2.9-0.3c3.1,0,5.9,0.8,8.4,2.2l0,0c0.1-0.7,0.2-1.4,0.2-2.2C65.9,37.9,60.7,32.7,54.3,32.7z
	 M54.3,21.1c-1.6,0-2.9-1.3-2.9-2.9v-5.8c0-1.6,1.3-2.9,2.9-2.9c1.6,0,2.9,1.3,2.9,2.9v5.8C57.2,19.8,55.9,21.1,54.3,21.1z
	 M33.9,27.9l-4.1-4.1c-1.1-1.1-1.1-3,0-4.1c1.1-1.1,3-1.1,4.1,0l4.1,4.1c1.1,1.1,1.1,3,0,4.1C36.9,29,35.1,29,33.9,27.9z M13.9,61.5
	h57.7c1.6,0,2.9,1.3,2.9,2.9c0,1.6-1.3,2.9-2.9,2.9H13.9c-1.6,0-2.9-1.3-2.9-2.9C11,62.8,12.3,61.5,13.9,61.5z M13.9,73.1h57.7
	c1.6,0,2.9,1.3,2.9,2.9c0,1.6-1.3,2.9-2.9,2.9H13.9c-1.6,0-2.9-1.3-2.9-2.9C11,74.4,12.3,73.1,13.9,73.1z M13.9,84.6h57.7
	c1.6,0,2.9,1.3,2.9,2.9c0,1.6-1.3,2.9-2.9,2.9H13.9c-1.6,0-2.9-1.3-2.9-2.9C11,85.9,12.3,84.6,13.9,84.6z"/>
</svg>
