<?xml version="1.0" encoding="utf-8"?>
<!-- Generator: Adobe Illustrator 18.0.0, SVG Export Plug-In . SVG Version: 6.00 Build 0)  -->
<!DOCTYPE svg PUBLIC "-//W3C//DTD SVG 1.1//EN" "http://www.w3.org/Graphics/SVG/1.1/DTD/svg11.dtd">
<svg version="1.1" id="Layer_1" xmlns="http://www.w3.org/2000/svg" xmlns:xlink="http://www.w3.org/1999/xlink" x="0px" y="0px"
	 viewBox="0 0 100 100" enable-background="new 0 0 100 100" xml:space="preserve">
<path fill="#FFFFFF" d="M82.8,44.3L82.8,44.3c1,1.5,1.9,3.1,2.5,4.9h0l0,0h-7.5l0,0l0,0c-2.4-4.1-6.7-6.8-11.8-6.8
	c-2.7,0-5.2,0.8-7.4,2.2c-2.1-9-10.1-15.8-19.8-15.8c-11.3,0-20.4,9.1-20.4,20.4l0,0h-6.8l0,0C11.8,34.1,24,22,39,22
	c3.4,0,6.6,0.6,9.6,1.8l0,0c2.8-8,10.3-13.7,19.2-13.7c1.3,0,2.5,0.1,3.7,0.4c-0.2,1-0.4,2-0.4,3c0,7.5,6.1,13.6,13.6,13.6
	c1,0,2.1-0.1,3-0.4c0.2,1.2,0.4,2.5,0.4,3.7C88.2,35.8,86.1,40.6,82.8,44.3z M64.8,17.2c-4.9,1.1-8.8,4.9-10.1,9.8l0,0
	c3.3,2.3,6,5.4,7.9,8.9c1.1-0.2,2.3-0.3,3.5-0.3c4.4,0,8.5,1.4,11.9,3.9l0,0c1.5-1.7,2.5-3.7,3-5.9C72.8,32,66.3,25.5,64.8,17.2z
	 M15.2,55.9h67.9c1.9,0,3.4,1.5,3.4,3.4s-1.5,3.4-3.4,3.4H15.2c-1.9,0-3.4-1.5-3.4-3.4S13.3,55.9,15.2,55.9z M15.2,69.5h67.9
	c1.9,0,3.4,1.5,3.4,3.4s-1.5,3.4-3.4,3.4H15.2c-1.9,0-3.4-1.5-3.4-3.4S13.3,69.5,15.2,69.5z M15.2,83.1h67.9c1.9,0,3.4,1.5,3.4,3.4
	c0,1.9-1.5,3.4-3.4,3.4H15.2c-1.9,0-3.4-1.5-3.4-3.4C11.8,84.6,13.3,83.1,15.2,83.1z"/>
</svg>
